<svg enable-background="new 0 0 512 512" height="512" id="Capa_1" viewBox="0 0 512 512" width="512"
    xmlns="http://www.w3.org/2000/svg">
    <path
        d="m454.5 464.5h-250c-27.614 0-50-22.386-50-50v-357c0-27.614 22.386-50 50-50h250c27.614 0 50 22.386 50 50v357c0 27.614-22.386 50-50 50z"
        fill="#ebf6fc" />
    <path
        d="m347.5 47.5h-191.998c-.656 3.231-1.002 6.575-1.002 10v357c0 27.614 22.386 50 50 50h191.998c.656-3.231 1.002-6.575 1.002-10v-357c0-27.614-22.386-50-50-50z"
        fill="#e1f1fa" />
    <path
        d="m464.5 374.5v-277c-27.614 0-50-22.386-50-50h-170c0 27.614-22.386 50-50 50v277c27.614 0 50 22.386 50 50h170c0-27.614 22.386-50 50-50z"
        fill="#b674f2" />
    <path
        d="m194.5 57.5v357c0 5.514 4.486 10 10 10h193v-327c0-27.614-22.386-50-50-50h-143c-5.514 0-10 4.486-10 10z"
        fill="#a260e5" />
    <path
        d="m307.5 504.5h-250c-27.614 0-50-22.386-50-50v-357c0-27.614 22.386-50 50-50h250c27.614 0 50 22.386 50 50v357c0 27.614-22.386 50-50 50z"
        fill="#f5fafc" />
    <path
        d="m47.5 454.5v-357c0-27.614 22.386-50 50-50h-40c-27.614 0-50 22.386-50 50v357c0 27.614 22.386 50 50 50h40c-27.614 0-50-22.386-50-50z"
        fill="#cdebfc" />
    <path
        d="m317.5 414.5v-277c-27.614 0-50-22.386-50-50h-170c0 27.614-22.386 50-50 50v277c27.614 0 50 22.386 50 50h170c0-27.614 22.386-50 50-50z"
        fill="#c78ff5" />
    <path d="m97.5 87.5c0 27.614-22.386 50-50 50v277c27.614 0 50 22.386 50 50z" fill="#b674f2" />
    <path
        d="m130.5 285.522c-4.143 0-7.5-3.358-7.5-7.5v-9.992c0-4.142 3.357-7.5 7.5-7.5s7.5 3.358 7.5 7.5v9.992c0 4.142-3.357 7.5-7.5 7.5z" />
    <path
        d="m234.5 285.522c-4.143 0-7.5-3.358-7.5-7.5v-9.992c0-4.142 3.357-7.5 7.5-7.5s7.5 3.358 7.5 7.5v9.992c0 4.142-3.357 7.5-7.5 7.5z" />
    <path
        d="m182.5 291.47c-7.422 0-14.479-3.214-19.364-8.818-2.721-3.123-2.396-7.86.727-10.582 3.122-2.722 7.859-2.397 10.582.726 2.034 2.334 4.971 3.673 8.056 3.673s6.021-1.339 8.056-3.673c2.722-3.124 7.459-3.448 10.582-.726s3.447 7.459.727 10.582c-4.887 5.604-11.944 8.818-19.366 8.818z" />
    <path
        d="m454.5 0h-250c-25.356 0-47.257 16.229-54.786 40h-92.214c-31.706 0-57.5 25.794-57.5 57.5v357c0 31.706 25.794 57.5 57.5 57.5h250c25.605 0 47.346-16.827 54.768-40h92.232c31.706 0 57.5-25.794 57.5-57.5v-357c0-31.706-25.794-57.5-57.5-57.5zm-147 497h-250c-23.435 0-42.5-19.065-42.5-42.5v-357c0-23.435 19.065-42.5 42.5-42.5h248.5 1.5c23.435 0 42.5 19.065 42.5 42.5v357c0 23.435-19.065 42.5-42.5 42.5zm189.5-82.5c0 23.435-19.065 42.5-42.5 42.5h-89.563c.036-.83.063-1.662.063-2.5v-22.5h49.5c4.143 0 7.5-3.358 7.5-7.5 0-23.435 19.065-42.5 42.5-42.5 4.143 0 7.5-3.358 7.5-7.5v-75.454c0-4.142-3.357-7.5-7.5-7.5s-7.5 3.358-7.5 7.5v68.44c-25.721 3.365-46.148 23.792-49.513 49.513h-42.487v-319.499c0-16.82-7.261-31.976-18.811-42.5h61.299c3.364 25.721 23.792 46.148 49.513 49.513v165.457c0 4.142 3.357 7.5 7.5 7.5s7.5-3.358 7.5-7.5v-172.47c0-4.142-3.357-7.5-7.5-7.5-23.436 0-42.501-19.065-42.501-42.5 0-4.142-3.357-7.5-7.5-7.5h-107-1.5-140.256c6.735-15.047 21.683-25 38.756-25h250c23.435 0 42.5 19.065 42.5 42.5z" />
    <path
        d="m249.202 229.095c-2.93-2.929-7.678-2.929-10.607 0s-2.929 7.678 0 10.606l36.299 36.299-92.394 92.394-92.394-92.394 92.394-92.394 36.298 36.298c2.93 2.929 7.678 2.929 10.607 0s2.929-7.678 0-10.606l-41.602-41.602c-2.93-2.929-7.678-2.929-10.607 0l-103 103c-2.929 2.929-2.929 7.678 0 10.606l103 103c1.465 1.464 3.385 2.197 5.304 2.197s3.839-.732 5.304-2.197l103-103c2.929-2.929 2.929-7.678 0-10.606z" />
    <path
        d="m223.93 170.13c-1.161 2.803-.52 6.028 1.625 8.173l54.642 54.642c1.436 1.435 3.354 2.197 5.306 2.197.966 0 1.94-.187 2.868-.571 2.803-1.161 4.63-3.896 4.63-6.929v-54.642c0-4.142-3.357-7.5-7.5-7.5h-54.642c-3.034 0-5.769 1.827-6.929 4.63zm54.07 10.37v29.035l-29.035-29.035z" />
    <path
        d="m76.63 234.571c.928.384 1.902.571 2.868.571 1.952 0 3.87-.762 5.306-2.197l54.642-54.642c2.145-2.145 2.786-5.371 1.625-8.173-1.16-2.803-3.896-4.63-6.929-4.63h-54.642c-4.143 0-7.5 3.358-7.5 7.5v54.642c0 3.034 1.827 5.768 4.63 6.929zm10.37-54.071h29.035l-29.035 29.035z" />
    <path
        d="m134.161 386.5c4.143 0 7.5-3.358 7.5-7.5 0-2.237-.979-4.246-2.532-5.62l-54.325-54.326c-2.146-2.146-5.371-2.787-8.174-1.626s-4.63 3.896-4.63 6.93v54.642c0 4.142 3.357 7.5 7.5 7.5h54.642zm-47.161-15v-29.035l29.035 29.035z" />
    <path
        d="m288.37 317.429c-2.803-1.161-6.028-.518-8.174 1.626l-54.642 54.642c-2.145 2.145-2.786 5.371-1.625 8.173 1.16 2.803 3.896 4.63 6.929 4.63h54.642c4.143 0 7.5-3.358 7.5-7.5v-54.642c0-3.034-1.827-5.768-4.63-6.929zm-10.37 54.071h-29.035l29.035-29.035z" />
    <path
        d="m132.858 150.5h99.283c4.143 0 7.5-3.358 7.5-7.5s-3.357-7.5-7.5-7.5h-99.283c-4.143 0-7.5 3.358-7.5 7.5s3.358 7.5 7.5 7.5z" />
    <path
        d="m232.142 401.5h-99.283c-4.143 0-7.5 3.358-7.5 7.5s3.357 7.5 7.5 7.5h99.283c4.143 0 7.5-3.358 7.5-7.5s-3.358-7.5-7.5-7.5z" />
    <path
        d="m317.5 130c-23.435 0-42.5-19.065-42.5-42.5 0-4.142-3.357-7.5-7.5-7.5h-170c-4.143 0-7.5 3.358-7.5 7.5 0 23.435-19.065 42.5-42.5 42.5-4.143 0-7.5 3.358-7.5 7.5v277c0 4.142 3.357 7.5 7.5 7.5 23.435 0 42.5 19.065 42.5 42.5 0 4.142 3.357 7.5 7.5 7.5h170c4.143 0 7.5-3.358 7.5-7.5 0-23.435 19.065-42.5 42.5-42.5 4.143 0 7.5-3.358 7.5-7.5v-277c0-4.142-3.357-7.5-7.5-7.5zm-7.5 277.487c-25.721 3.365-46.148 23.792-49.513 49.513h-155.974c-3.364-25.721-23.792-46.148-49.513-49.513v-262.974c25.721-3.365 46.148-23.792 49.513-49.513h155.975c3.364 25.721 23.792 46.148 49.513 49.513v262.974z" />
</svg>